<svg width="24" height="24" viewBox="0 0 24 24" fill="none" xmlns="http://www.w3.org/2000/svg">
<g filter="url(#filter0_i_315_575)">
<path d="M12 0C5.37281 0 0 5.37234 0 12C0 18.6277 5.37281 24 12 24C18.6272 24 24 18.6272 24 12C24 5.37281 18.6272 0 12 0ZM18.0206 5.92734C18.4061 5.70496 18.8489 5.60189 19.293 5.63118C19.737 5.66046 20.1625 5.82077 20.5154 6.09185C20.8684 6.36292 21.133 6.73258 21.2759 7.15407C21.4187 7.57556 21.4334 8.02994 21.318 8.45975C21.2026 8.88957 20.9623 9.27551 20.6275 9.56876C20.2928 9.86201 19.8786 10.0494 19.4373 10.1072C18.996 10.1651 18.5475 10.0907 18.1485 9.89364C17.7495 9.69655 17.4179 9.38556 17.1956 9C16.8977 8.48312 16.8172 7.86905 16.9719 7.29285C17.1266 6.71664 17.5038 6.22547 18.0206 5.92734ZM12 1.5C12.445 1.5 12.88 1.63196 13.25 1.87919C13.62 2.12643 13.9084 2.47783 14.0787 2.88896C14.249 3.3001 14.2936 3.7525 14.2068 4.18895C14.12 4.62541 13.9057 5.02632 13.591 5.34099C13.2763 5.65566 12.8754 5.86995 12.439 5.95677C12.0025 6.04358 11.5501 5.99903 11.139 5.82873C10.7278 5.65843 10.3764 5.37004 10.1292 5.00003C9.88196 4.63002 9.75 4.19501 9.75 3.75C9.75 3.15326 9.98705 2.58097 10.409 2.15901C10.831 1.73705 11.4033 1.5 12 1.5ZM5.97937 18.0731C5.59388 18.2955 5.15112 18.3985 4.70707 18.3692C4.26303 18.3399 3.83765 18.1795 3.48472 17.9085C3.1318 17.6374 2.86718 17.2677 2.72434 16.8463C2.58149 16.4248 2.56683 15.9705 2.68221 15.5407C2.79759 15.1109 3.03783 14.725 3.37255 14.4317C3.70726 14.1384 4.12143 13.951 4.56266 13.8932C5.00389 13.8353 5.45237 13.9096 5.8514 14.1066C6.25042 14.3036 6.58206 14.6145 6.80438 15C7.10249 15.5169 7.18304 16.1311 7.02833 16.7074C6.87361 17.2837 6.49629 17.775 5.97937 18.0731ZM6.80438 9C6.58206 9.3855 6.25042 9.69642 5.8514 9.89343C5.45237 10.0904 5.00389 10.1647 4.56266 10.1068C4.12143 10.049 3.70726 9.86155 3.37255 9.56829C3.03783 9.27504 2.79759 8.88911 2.68221 8.45932C2.56683 8.02953 2.58149 7.57517 2.72434 7.15371C2.86718 6.73225 3.1318 6.36261 3.48472 6.09154C3.83765 5.82047 4.26303 5.66014 4.70707 5.63083C5.15112 5.60152 5.59388 5.70455 5.97937 5.92688C6.49629 6.225 6.87361 6.71626 7.02833 7.29258C7.18304 7.8689 7.10249 8.48307 6.80438 9ZM12 22.5C11.555 22.5 11.12 22.368 10.75 22.1208C10.38 21.8736 10.0916 21.5222 9.92127 21.111C9.75097 20.6999 9.70642 20.2475 9.79323 19.811C9.88005 19.3746 10.0943 18.9737 10.409 18.659C10.7237 18.3443 11.1246 18.13 11.561 18.0432C11.9975 17.9564 12.4499 18.001 12.861 18.1713C13.2722 18.3416 13.6236 18.63 13.8708 19C14.118 19.37 14.25 19.805 14.25 20.25C14.25 20.8467 14.0129 21.419 13.591 21.841C13.169 22.2629 12.5967 22.5 12 22.5ZM12 15C11.4067 15 10.8266 14.8241 10.3333 14.4944C9.83994 14.1648 9.45542 13.6962 9.22836 13.1481C9.0013 12.5999 8.94189 11.9967 9.05764 11.4147C9.1734 10.8328 9.45912 10.2982 9.87868 9.87868C10.2982 9.45912 10.8328 9.1734 11.4147 9.05764C11.9967 8.94189 12.5999 9.0013 13.1481 9.22836C13.6962 9.45542 14.1648 9.83994 14.4944 10.3333C14.8241 10.8266 15 11.4067 15 12C15 12.7956 14.6839 13.5587 14.1213 14.1213C13.5587 14.6839 12.7956 15 12 15ZM21.0938 17.25C20.8714 17.6355 20.5397 17.9464 20.1407 18.1433C19.7416 18.3403 19.2931 18.4145 18.8519 18.3566C18.4106 18.2987 17.9965 18.1112 17.6618 17.8179C17.3271 17.5246 17.0869 17.1386 16.9716 16.7088C16.8563 16.279 16.871 15.8246 17.0139 15.4032C17.1569 14.9817 17.4215 14.6121 17.7745 14.3411C18.1275 14.0701 18.5529 13.9098 18.9969 13.8806C19.441 13.8514 19.8838 13.9545 20.2692 14.1769C20.7861 14.4751 21.1633 14.9664 21.3179 15.5427C21.4725 16.119 21.3919 16.7331 21.0938 17.25Z" fill="#BC957B"/>
</g>
<defs>
<filter id="filter0_i_315_575" x="0" y="0" width="24" height="28" filterUnits="userSpaceOnUse" color-interpolation-filters="sRGB">
<feFlood flood-opacity="0" result="BackgroundImageFix"/>
<feBlend mode="normal" in="SourceGraphic" in2="BackgroundImageFix" result="shape"/>
<feColorMatrix in="SourceAlpha" type="matrix" values="0 0 0 0 0 0 0 0 0 0 0 0 0 0 0 0 0 0 127 0" result="hardAlpha"/>
<feOffset dy="4"/>
<feGaussianBlur stdDeviation="6"/>
<feComposite in2="hardAlpha" operator="arithmetic" k2="-1" k3="1"/>
<feColorMatrix type="matrix" values="0 0 0 0 0.475 0 0 0 0 0.475 0 0 0 0 0.475 0 0 0 0.13 0"/>
<feBlend mode="normal" in2="shape" result="effect1_innerShadow_315_575"/>
</filter>
</defs>
</svg>
