<svg width="21" height="24" viewBox="0 0 21 24" fill="none" xmlns="http://www.w3.org/2000/svg">
<path d="M18.0791 12.6233L18.0703 5.53001L7.97357 8.57401L7.97404 8.95498C7.97849 12.5562 7.98294 16.1573 7.98739 19.7585C7.98986 21.7603 6.7512 23.4118 4.90057 23.8872C2.69319 24.454 0.378657 22.8175 0.0672174 20.4666C-0.234001 18.1771 1.08243 16.1909 3.23382 15.7123C4.10846 15.5178 4.94771 15.6635 5.75087 16.0645C5.83865 16.109 5.92525 16.1565 6.06797 16.2309L6.06748 15.8393C6.06283 12.0713 6.05618 8.30356 6.04755 4.53598C6.04722 4.27262 6.11751 4.1669 6.36449 4.09308C10.8518 2.7502 15.3373 1.40023 19.821 0.0431642C19.867 0.0294018 19.9147 0.0200181 20 0L20.0004 0.349693C20.007 5.66826 20.0136 10.9868 20.0201 16.3054C20.023 18.6319 17.9713 20.588 15.7582 20.3716C13.6066 20.1632 12.0432 18.4017 12.0435 16.1865C12.0447 13.8338 13.933 11.9421 16.1764 12.0346C16.8424 12.0653 17.4568 12.268 18.0791 12.6233Z" fill="#CAA3CC"/>
</svg>
