<svg width="25" height="24" viewBox="0 0 25 24" fill="none" xmlns="http://www.w3.org/2000/svg">
<g filter="url(#filter0_i_315_576)">
<path d="M23.3833 23.9993C22.9476 23.8201 22.5102 23.6449 22.0764 23.4608C20.8995 22.9617 19.7236 22.4606 18.5487 21.9576C18.3096 21.8537 18.093 21.7045 17.911 21.5182C12.1064 15.738 6.29963 9.9603 0.49075 4.18501C0.267476 3.96312 0.0650296 3.73707 0.00389088 3.41754L0.00356232 3.1246C0.072555 2.79872 0.285766 2.57072 0.514666 2.34614C1.08704 1.78469 1.6518 1.21592 2.2178 0.648366C2.6937 0.171378 3.29562 0.167716 3.77308 0.643972C7.7925 4.64345 11.8121 8.64268 15.8318 12.6417C17.6857 14.4862 19.5383 16.332 21.3896 18.1793C21.5487 18.3416 21.6802 18.5287 21.779 18.7332C22.4744 20.1607 23.1578 21.5944 23.8449 23.0261C23.8835 23.1066 23.9223 23.1872 23.9574 23.2702C24.0855 23.5714 23.9561 23.8641 23.6462 23.9781C23.6316 23.9846 23.6174 23.9919 23.6036 24L23.3833 23.9993ZM5.19363 3.52665L2.99156 1.33822L1.05023 3.27449L3.25132 5.46414L5.19363 3.52665ZM19.3434 21.2201L22.4574 22.5276L22.4819 22.5017L21.0544 19.5128L19.3434 21.2201Z" fill="#FFB800"/>
<path d="M16.4829 12.4073C14.84 10.7677 13.1989 9.12901 11.5596 7.4912C11.5745 7.47558 11.6017 7.44604 11.6301 7.41797C14.0041 5.0506 16.3778 2.68275 18.7513 0.314405C19.0299 0.0361216 19.3509 -0.0781212 19.7284 0.0566269C19.8652 0.108502 19.9895 0.188712 20.0929 0.291948C21.3048 1.48824 22.5129 2.6882 23.7173 3.89182C24.1098 4.28239 24.0987 4.81138 23.6969 5.21196C21.7874 7.11747 19.8773 9.02241 17.9665 10.9268C17.471 11.4212 16.9765 11.9147 16.4829 12.4073ZM18.8702 8.44054L18.0957 7.67111C17.5094 7.08867 16.9235 6.5059 16.3379 5.9228C16.1637 5.74851 15.9597 5.68406 15.725 5.74778C15.2879 5.86617 15.1621 6.40028 15.4928 6.73153C16.3251 7.56297 17.1593 8.39245 17.9954 9.21998C18.0102 9.23379 18.0262 9.24636 18.043 9.25757L18.8702 8.44054ZM22.7257 4.60681L21.3304 3.21539C21.2813 3.16657 21.2323 3.11604 21.1803 3.07186C21.1198 3.01974 21.0489 2.98097 20.9724 2.95808C20.8958 2.93519 20.8152 2.92871 20.736 2.93906C20.5013 2.96713 20.3311 3.08992 20.2534 3.31426C20.1737 3.54494 20.2215 3.75732 20.3947 3.93259C20.6725 4.2138 20.9551 4.49013 21.2346 4.76963C21.4554 4.99104 21.6762 5.21391 21.8912 5.43044L22.7257 4.60681ZM21.5129 5.80295C21.3866 5.68089 21.2598 5.56055 21.1356 5.43678C20.7651 5.07062 20.3968 4.70153 20.0259 4.33561C19.8161 4.12885 19.5237 4.08662 19.2861 4.22356C18.9547 4.41446 18.902 4.85825 19.1837 5.14263C19.6685 5.63085 20.1578 6.11443 20.6453 6.59972C20.6568 6.61045 20.669 6.6204 20.6818 6.6295L21.5129 5.80295ZM17.4026 9.91715C16.8874 9.39671 16.381 8.8792 15.8655 8.37097C15.7153 8.22304 15.5148 8.20278 15.3156 8.25965C14.8829 8.38342 14.7593 8.90459 15.0861 9.23389C15.5618 9.71332 16.043 10.1874 16.5219 10.6636C16.5445 10.6861 16.571 10.7056 16.5923 10.7252L17.4026 9.91715ZM20.167 7.16409C19.6518 6.64512 19.15 6.1176 18.6227 5.6162C18.3038 5.31253 17.7648 5.51245 17.6778 5.94355C17.6335 6.16178 17.7069 6.34145 17.8615 6.49475C18.3382 6.96751 18.8146 7.44043 19.2907 7.91351C19.3123 7.93475 19.3378 7.95208 19.3618 7.97161L20.167 7.16409Z" fill="#FFB800"/>
<path d="M7.04409 11.9935L12.0003 16.9167C11.9513 16.947 11.9057 16.9655 11.8744 16.9953C9.81049 19.0515 7.74716 21.1084 5.68441 23.1659C5.24253 23.6053 4.73398 23.6053 4.28989 23.1627C3.10858 21.9876 1.92727 20.8124 0.745967 19.6373C0.319293 19.213 0.317245 18.698 0.741742 18.2742C2.81282 16.2074 4.88414 14.1413 6.95571 12.0758C6.9819 12.0504 7.00884 12.0265 7.04409 11.9935ZM6.28058 20.8845C6.27818 20.8783 6.27478 20.8726 6.27052 20.8676C5.41177 20.0132 4.55768 19.1589 3.696 18.3108C3.51591 18.1336 3.28674 18.1155 3.05868 18.2102C2.66967 18.3723 2.59964 18.8645 2.91835 19.182C3.74324 20.0042 4.56927 20.8253 5.39644 21.6453C5.41828 21.6673 5.44379 21.6854 5.46121 21.7L6.28058 20.8845ZM7.74257 19.4183C7.47952 19.133 7.21818 18.8425 6.94901 18.5596C6.75811 18.3589 6.56183 18.1636 6.36016 17.9737C6.30566 17.9198 6.24103 17.877 6.16997 17.8479C6.09892 17.8188 6.02282 17.8039 5.94602 17.8041C5.86922 17.8043 5.79323 17.8196 5.72239 17.849C5.65155 17.8785 5.58724 17.9216 5.53313 17.9758C5.47902 18.03 5.43618 18.0943 5.40705 18.1651C5.37792 18.2358 5.36307 18.3116 5.36335 18.3881C5.36363 18.4646 5.37903 18.5403 5.40868 18.6109C5.43833 18.6815 5.48164 18.7456 5.53614 18.7995C5.60288 18.871 5.67427 18.9379 5.74346 19.007L6.93836 20.2056L7.74257 19.4183ZM9.11644 18.0584C8.63996 17.5826 8.17131 17.0952 7.68038 16.6314C7.37346 16.3411 6.86043 16.4986 6.74202 16.8999C6.67439 17.1298 6.73392 17.3319 6.90518 17.5021C7.35025 17.9439 7.79492 18.3862 8.23918 18.8288C8.25776 18.8454 8.27743 18.8607 8.29805 18.8747L9.11644 18.0584ZM10.3214 16.8379C10.313 16.8288 10.2983 16.8103 10.2816 16.7934C9.83801 16.3511 9.39416 15.909 8.95007 15.467C8.703 15.2228 8.32556 15.2167 8.09545 15.4489C7.8597 15.6869 7.87162 16.0426 8.12654 16.2967C8.56458 16.7331 9.00377 17.1687 9.4441 17.6034C9.46618 17.6251 9.49096 17.6442 9.50199 17.6537L10.3214 16.8379Z" fill="#FFB800"/>
</g>
<defs>
<filter id="filter0_i_315_576" x="0.0035553" y="0.00012207" width="24.0029" height="27.9999" filterUnits="userSpaceOnUse" color-interpolation-filters="sRGB">
<feFlood flood-opacity="0" result="BackgroundImageFix"/>
<feBlend mode="normal" in="SourceGraphic" in2="BackgroundImageFix" result="shape"/>
<feColorMatrix in="SourceAlpha" type="matrix" values="0 0 0 0 0 0 0 0 0 0 0 0 0 0 0 0 0 0 127 0" result="hardAlpha"/>
<feOffset dy="4"/>
<feGaussianBlur stdDeviation="6"/>
<feComposite in2="hardAlpha" operator="arithmetic" k2="-1" k3="1"/>
<feColorMatrix type="matrix" values="0 0 0 0 0.475 0 0 0 0 0.475 0 0 0 0 0.475 0 0 0 0.13 0"/>
<feBlend mode="normal" in2="shape" result="effect1_innerShadow_315_576"/>
</filter>
</defs>
</svg>
